<svg width="630" height="378" viewBox="0 0 630 378" fill="none" xmlns="http://www.w3.org/2000/svg">
<path d="M-26.1071 254.783C-27.7947 250.707 -43.1458 205.476 -37.9204 234.806C-30.8977 274.225 -22.7782 313.453 -14.8564 352.698C-13.4289 359.77 -9.56312 380.707 -8.9497 373.519C-7.126 352.148 -11.8606 327.591 -13.7313 306.695C-17.3151 266.662 -20.8552 226.611 -21.8881 186.411C-22.1205 177.366 -24.6947 153.198 -19.6379 143.081C-18.7306 141.266 -16.2743 145.777 -15.7002 147.723C-10.0593 166.846 -8.10066 187.62 -5.2932 207.232C-1.28814 235.21 2.14674 263.274 6.37948 291.22C7.11259 296.06 7.79611 300.912 8.77026 305.71C10.6567 315 10.2319 303.928 10.1766 302.615C7.63154 242.149 -0.378912 181.744 0.894724 121.134C1.12562 110.146 -0.189333 88.3281 5.39503 77.6634C8.73555 71.2839 8.5495 91.7475 9.3328 98.9065C14.2558 143.901 23.5789 188.059 34.3658 231.992C38.6293 249.357 42.2827 273.316 51.2419 289.672C53.0228 292.923 54.659 282.827 54.7578 279.121C56.3783 218.329 43.6868 157.453 35.4908 97.4997C33.3149 81.5826 32.7338 33.9143 29.5842 49.6676C27.4235 60.4749 32.4621 81.7997 33.522 91.591C37.2563 126.091 41.9165 160.234 53.3514 193.164C54.3253 195.968 62.7409 222.471 66.5711 205.966C81.1941 142.953 75.9523 74.075 80.072 9.85441C80.4846 3.42246 80.9424 -3.00956 81.619 -9.41911C81.7408 -10.5728 82.2112 -13.928 82.4628 -12.7955C83.0733 -10.0473 82.7037 -7.16946 82.7441 -4.35453C83.1292 22.4857 82.9287 49.3032 84.5723 76.1159C84.7813 79.5247 87.9185 154.505 104.121 148.427C125.681 140.339 126.261 83.3126 129.435 65.424C132.379 48.8311 136.907 32.8046 141.951 16.7479C143.608 11.4745 146.394 -3.12257 150.53 -8.29365C153.645 -12.1891 150.027 1.68873 149.264 6.61871C146.453 24.7931 142.758 42.8155 139.56 60.9222C138.999 64.1032 128.969 123.921 134.357 123.104C146.857 121.209 170.625 85.5184 175.844 79.2109C199.047 51.1701 220.903 21.3217 247.849 -3.36976C252.13 -7.2925 276.873 -27.2033 265.288 -3.7918C255.193 16.6088 239.854 35.0754 225.769 52.7626C221.846 57.6892 217.785 62.5042 213.816 67.3936C210.813 71.0923 200.658 79.5733 205.377 78.9296C211.895 78.0406 225.836 61.8223 229.848 58.2492C240.507 48.7565 259.852 24.0464 275.413 22.6565C285.385 21.7659 270.745 49.8631 270.351 50.793C264.522 64.5362 257.574 78.2407 252.912 92.4351C248.26 106.599 260.185 96.2714 265.288 92.4351C296.144 69.2374 324.742 40.299 360.919 25.1888C402.147 7.96946 359.336 66.4925 353.325 74.9904C343.315 89.141 317.204 113.835 314.791 132.108C314.566 133.814 317.602 134.969 319.291 134.64C326.992 133.139 359.459 116.921 362.326 115.507C425.847 84.1766 493.565 43.4002 564.839 33.067C576.42 31.3881 590.164 32.0953 601.264 35.8807C618.673 41.8177 616.467 50.7389 627 62.329" stroke="#21B8EB" stroke-width="5" stroke-linecap="round" stroke-linejoin="round"/>
</svg>
