<svg width="172" height="79" viewBox="0 0 172 79" fill="none" xmlns="http://www.w3.org/2000/svg">
<path d="M168.81 55.7604C163.07 61.0437 156.777 64.8947 149.991 68.579C145.389 71.0772 140.762 73.7379 135.692 75.2495C134.847 75.5012 128.29 76.4755 130.403 73.3345C133.2 69.1784 137.77 66.3626 141.096 62.7213C145.936 57.4209 150.567 51.5487 154.148 45.0754C154.467 44.4999 159.081 35.8114 155.848 36.0449C154.497 36.1425 151.346 37.4941 150.435 37.9168C145.776 40.08 141.443 42.884 136.886 45.2447C122.295 52.8045 105.393 60.4314 87.9978 59.5453C85.6945 59.428 76.5208 58.6716 75.4682 54.5096C74.4466 50.4702 82.2701 47.2027 84.3316 46.1079C95.2263 40.3218 106.709 35.6851 117.333 29.3725C120.132 27.7097 136.215 19.4456 129.559 12.6408C125.626 8.62018 118.18 9.87042 113.945 10.0082C98.9989 10.4944 84.2213 11.9589 69.2146 12.073C49.0624 12.2263 27.7452 11.94 7.40802 5.52648C6.66196 5.2912 0.55016 3.28881 4.25799 3.03006" stroke="#21B8EB" stroke-width="6" stroke-linecap="round" stroke-linejoin="round"/>
</svg>
