<svg width="101" height="101" viewBox="0 0 101 101" fill="none" xmlns="http://www.w3.org/2000/svg">
<path d="M69.0144 24.8155L65.7518 27.9899C65.321 28.4176 64.6653 28.5222 64.1228 28.2501C62.8635 27.5995 61.5598 27.0384 60.2214 26.5712C59.6468 26.3661 59.268 25.8162 59.2811 25.2062L59.3406 20.6388C59.3726 18.2422 57.4566 16.2729 55.06 16.2392L46.3643 16.1271C43.9676 16.0952 41.9984 18.0112 41.9646 20.4078L41.9011 24.9689C41.8977 25.5786 41.505 26.1177 40.9257 26.3077C39.5727 26.7358 38.2518 27.2592 36.9727 27.8738C36.4227 28.1341 35.7677 28.013 35.3473 27.5731L32.1729 24.3105C30.5006 22.5917 27.7515 22.554 26.0327 24.2263L19.8083 30.2824C18.0894 31.9548 18.0517 34.7038 19.7241 36.4227L22.8985 39.6853C23.3262 40.1161 23.431 40.7717 23.1587 41.3143C22.5096 42.5754 21.9502 43.881 21.4848 45.2208C21.2804 45.7961 20.7302 46.1752 20.1198 46.1612L15.5524 46.1017C13.1578 46.0746 11.1914 47.9878 11.1528 50.3823L11.0337 59.0687C11.0013 61.4661 12.918 63.4361 15.3154 63.4694L22.0327 63.5676C22.832 63.5659 23.4787 62.9164 23.4769 62.117C23.4752 61.3372 22.8559 60.6988 22.0765 60.6735L15.3581 60.5784C14.559 60.5673 13.92 59.9106 13.9309 59.1115L14.0499 50.4251C14.061 49.626 14.7177 48.987 15.5168 48.9979L20.0852 49.0564C21.9407 49.0873 23.6068 47.9251 24.219 46.1734C24.6404 44.9624 25.1464 43.7825 25.7332 42.6423C26.5765 40.993 26.2706 38.9891 24.9733 37.6666L21.7989 34.404C21.2415 33.8311 21.2541 32.9146 21.827 32.3572L28.0514 26.3012C28.6243 25.7437 29.5407 25.7563 30.0981 26.3292L33.2725 29.5918C34.5588 30.9245 36.5533 31.2849 38.2246 30.4868C39.3809 29.9312 40.5748 29.4577 41.7978 29.07C43.5629 28.5027 44.7681 26.8706 44.791 25.0167L44.8587 20.4495C44.8698 19.6504 45.5265 19.0115 46.3256 19.0223L55.013 19.1424C55.8114 19.154 56.4495 19.8099 56.4392 20.6082L56.3807 25.1766C56.3512 27.0317 57.5129 28.6971 59.2637 29.3104C60.4747 29.7318 61.6546 30.2378 62.7947 30.8246C64.444 31.6685 66.4481 31.3624 67.7705 30.0647L71.0331 26.8903C71.606 26.3329 72.5224 26.3455 73.0799 26.9184L79.1359 33.1428C79.6933 33.7157 79.6808 34.6321 79.1079 35.1895L75.8452 38.3639C74.5126 39.6502 74.1522 41.6447 74.9503 43.316C75.506 44.4721 75.9794 45.6662 76.3671 46.8892C76.9332 48.6552 78.5659 49.8608 80.4203 49.8824L84.9886 49.9491C85.7877 49.9602 86.4267 50.6169 86.4158 51.416L86.2947 60.1044C86.2831 60.9028 85.6272 61.5409 84.8288 61.5306L78.1103 61.4457C77.3112 61.4219 76.6443 62.0506 76.6207 62.8496C76.5969 63.6486 77.2256 64.3155 78.0246 64.3392C78.0412 64.3396 78.0581 64.3399 78.0747 64.3398L84.7922 64.4258C87.1888 64.4577 89.1581 62.5418 89.1918 60.1451L89.3119 51.4598C89.3444 49.0624 87.4277 47.0924 85.0303 47.0591L80.4681 46.9925C79.8586 46.9887 79.3197 46.596 79.1294 46.0171C78.7013 44.6641 78.1779 43.3432 77.5632 42.0641C77.303 41.5141 77.4241 40.8591 77.8639 40.4387L81.1266 37.2643C82.8454 35.592 82.8831 32.8429 81.2107 31.1241L75.1547 24.8997C73.4823 23.1808 70.7333 23.1431 69.0144 24.8155Z" fill="white"/>
<path d="M50.4309 36.4501C40.0446 36.3186 31.5125 44.62 31.3593 55.006C31.3622 55.8053 32.0127 56.451 32.812 56.448C33.5918 56.4451 34.2291 55.825 34.2534 55.0456C34.3149 46.2526 41.493 39.1745 50.286 39.2361C59.079 39.2976 66.1571 46.4757 66.0955 55.2687C66.095 55.3398 66.0941 55.411 66.0926 55.4821C66.0678 56.2811 66.6953 56.9489 67.4944 56.9737C68.2935 56.9985 68.9612 56.371 68.986 55.5719C68.9865 55.5553 68.9867 55.5384 68.9867 55.5217C69.1182 45.1355 60.8168 36.6034 50.4309 36.4501Z" fill="white"/>
</svg>
