<svg width="268" height="268" viewBox="0 0 268 268" fill="none" xmlns="http://www.w3.org/2000/svg">
<path d="M181.949 64.8568L173.471 73.497C172.352 74.6606 170.615 74.9792 169.156 74.2891C165.769 72.6372 162.268 71.2258 158.681 70.0663C157.141 69.5567 156.1 68.1179 156.097 66.4954L155.974 54.3495C155.911 47.9761 150.696 42.859 144.323 42.917L121.198 43.1553C114.825 43.2181 109.708 48.4332 109.766 54.8066L109.878 66.9363C109.907 68.5572 108.896 70.0147 107.368 70.5555C103.797 71.7771 100.318 73.2499 96.9552 74.9627C95.509 75.6885 93.7603 75.4071 92.6155 74.2636L83.9753 65.7856C79.4234 61.3192 72.1128 61.3885 67.6464 65.9404L51.4722 82.4242C47.0058 86.9761 47.0751 94.2867 51.627 98.7531L60.2672 107.231C61.4308 108.35 61.7498 110.086 61.0593 111.546C59.4115 114.938 58.0049 118.444 56.8503 122.034C56.3423 123.576 54.9029 124.618 53.2793 124.618L41.1334 124.742C34.7656 124.817 29.6559 130.025 29.701 136.393L29.92 159.493C29.9814 165.869 35.1985 170.988 41.574 170.928L59.438 170.775C61.5628 170.721 63.2421 168.955 63.1879 166.83C63.1353 164.757 61.4494 163.098 59.3759 163.079L41.5093 163.24C39.3841 163.26 37.6451 161.553 37.6246 159.428L37.4056 136.328C37.3858 134.203 39.0922 132.464 41.2173 132.444L53.3659 132.317C58.3005 132.285 62.6583 129.093 64.1778 124.398C65.2235 121.153 66.4958 117.985 67.9855 114.918C70.1259 110.481 69.189 105.172 65.6586 101.737L57.0184 93.2586C55.5012 91.7699 55.4781 89.3328 56.9668 87.8156L73.1409 71.3318C74.6296 69.8146 77.0667 69.7915 78.5839 71.2802L87.2242 79.7582C90.7258 83.2217 96.0503 84.0568 100.444 81.832C103.484 80.2838 106.629 78.9513 109.856 77.8452C114.514 76.2283 117.617 71.8151 117.564 66.8852L117.462 54.7391C117.442 52.6139 119.149 50.8749 121.274 50.8544L144.377 50.6381C146.5 50.6197 148.237 52.324 148.259 54.4471L148.385 66.5957C148.421 71.5292 151.612 75.8851 156.304 77.4076C159.549 78.4533 162.717 79.7256 165.785 81.2153C170.221 83.357 175.53 82.4198 178.966 78.8884L187.444 70.2482C188.932 68.731 191.369 68.7079 192.887 70.1966L209.37 86.3707C210.888 87.8594 210.911 90.2965 209.422 91.8137L200.944 100.454C197.48 103.956 196.645 109.28 198.87 113.674C200.419 116.713 201.751 119.859 202.857 123.086C204.471 127.746 208.886 130.851 213.817 130.794L225.966 130.689C228.091 130.669 229.83 132.376 229.85 134.501L230.064 157.607C230.082 159.73 228.378 161.467 226.255 161.488L208.389 161.677C206.263 161.663 204.529 163.375 204.515 165.501C204.501 167.627 206.214 169.361 208.339 169.374C208.383 169.375 208.428 169.374 208.472 169.373L226.336 169.187C232.71 169.125 237.827 163.91 237.769 157.536L237.552 134.439C237.491 128.063 232.274 122.944 225.898 123.004L213.766 123.108C212.145 123.135 210.688 122.125 210.147 120.597C208.925 117.027 207.452 113.547 205.739 110.185C205.014 108.739 205.295 106.99 206.439 105.845L214.917 97.2051C219.383 92.6532 219.314 85.3426 214.762 80.8761L198.278 64.702C193.726 60.2356 186.415 60.3049 181.949 64.8568Z" fill="white"/>
<path d="M133.262 96.9322C105.642 97.223 83.4716 119.818 83.7045 147.438C83.7618 149.563 85.5308 151.24 87.6556 151.183C89.7284 151.127 91.3845 149.439 91.4009 147.365C91.0224 123.986 109.669 104.726 133.049 104.348C156.429 103.969 175.688 122.615 176.067 145.995C176.07 146.184 176.072 146.374 176.072 146.563C176.055 148.689 177.765 150.425 179.891 150.442C182.016 150.458 183.753 148.749 183.77 146.623C183.77 146.579 183.769 146.534 183.768 146.49C183.478 118.87 160.882 96.6993 133.262 96.9322Z" fill="white"/>
</svg>
