<svg width="548" height="391" viewBox="0 0 548 391" fill="none" xmlns="http://www.w3.org/2000/svg">
<path d="M63 170.141C91.2854 118.874 135.418 76.9643 188.61 51.4765C208.919 41.7452 230.72 33.6338 252.903 29.4501C270.732 26.0876 296.495 20.9314 313.426 30.4423C340.105 45.4284 331.534 82.9918 316.8 103.467C293.641 135.648 258.737 159.526 231.671 188.397C207.793 213.866 185.504 238.842 173.132 271.74C166.643 288.995 160.024 315.541 178.291 327.898C199.809 342.454 229.324 318.576 245.363 305.673C279.516 278.198 302.565 239.325 338.628 214.293C363.277 197.183 390.008 179.604 421.276 180.162C433.934 180.388 456.994 181.142 462.749 194.45C470.286 211.879 455.922 233.107 447.867 247.829C440.481 261.328 429.42 272.486 418.994 283.746C410.764 292.635 393.991 305.39 400.738 319.365C406.958 332.25 415.919 334.209 429.412 331.569C460.855 325.417 485.237 310.314 512.854 295.354C526.82 287.79 550.044 274.573 564.845 284.44" stroke="#F3A2BC" stroke-width="15" stroke-linecap="round" stroke-linejoin="round"/>
<path d="M5.04346 134.989C4.58528 122.068 7.82317 110.501 11.2947 98.0404C15.4032 83.293 19.7981 68.4413 27.7105 55.1966C32.4001 47.3466 43.5634 28.2289 47.6839 36.3921C49.1416 39.2799 48.677 42.8138 48.6496 46.0485C48.6132 50.3278 46.5974 68.878 46.1084 73.4929C45.3146 80.9849 44.2018 88.5565 44.1263 96.1091C44.1063 98.1106 43.8311 105.924 48.0397 100.836C54.7881 92.6771 59.1578 81.6293 63.7948 72.2731C69.9131 59.9282 75.938 47.7722 83.5141 36.2397C86.7215 31.3572 98.1602 13.4227 93.6787 31.1065C91.5028 39.6924 88.5428 48.0844 86.5635 56.7213C85.7693 60.1868 84.4879 65.3264 89.4096 61.1429C101.561 50.814 109.74 36.6237 122.8 27.244C137.657 16.5744 152.313 10.9166 169.71 6" stroke="#21B8EB" stroke-width="10" stroke-linecap="round" stroke-linejoin="round"/>
<path d="M316.103 297.332C326.132 290.195 336.033 283.055 347.225 277.825C354.853 274.262 364.376 269.448 372.99 269.005C377.657 268.765 368.857 276.881 368.75 276.985C355.981 289.5 341.287 299.887 327.937 311.752C303.598 333.384 280.196 356.821 259.449 381.986C252.787 390.066 261.444 383.833 264.994 381.519C278.442 372.752 291.364 363.208 305.574 355.665C320.427 347.782 337.519 339.866 354.82 340.732C364.45 341.214 340.02 359.495 338.56 360.566C337.842 361.092 320.382 373.897 325.794 374.426C334.234 375.25 343.382 370.99 351.046 368.219C360.4 364.837 369.705 361.344 379 357.812" stroke="#FFEC51" stroke-width="10" stroke-linecap="round" stroke-linejoin="round"/>
<path d="M382.195 125.741C382.137 125.734 376.421 125.184 377.124 124.472C380.849 120.694 391.98 119.528 396.42 118.724C408.907 116.463 422.24 115.063 434.87 117.033C437.59 117.457 439.025 117.867 440.201 120.058" stroke="#21B8EB" stroke-width="5" stroke-linecap="round" stroke-linejoin="round"/>
<path d="M223.761 95.5703C231.179 96.9496 238.318 100.343 245.668 102.238" stroke="#FFEC51" stroke-width="7" stroke-linecap="round" stroke-linejoin="round"/>
<path d="M231.299 110.472C233.43 107.294 234.04 103.386 234.958 99.7286C235.958 95.7444 236.923 91.7515 237.862 87.7529" stroke="#FFEC51" stroke-width="7" stroke-linecap="round" stroke-linejoin="round"/>
</svg>
