<svg width="208" height="208" viewBox="0 0 208 208" fill="none" xmlns="http://www.w3.org/2000/svg">
<mask id="path-1-inside-1" fill="white">
<path d="M66.3741 157.519L72.9734 150.794C73.8443 149.888 75.1963 149.64 76.3319 150.177C78.969 151.463 81.6939 152.562 84.4858 153.464C85.6848 153.861 86.4951 154.981 86.4973 156.244L86.5933 165.698C86.6422 170.659 90.7016 174.643 95.6627 174.597L113.663 174.412C118.624 174.363 122.607 170.304 122.562 165.342L122.475 155.901C122.452 154.639 123.239 153.504 124.429 153.083C127.208 152.133 129.916 150.986 132.534 149.653C133.659 149.088 135.021 149.307 135.912 150.197L142.637 156.796C146.181 160.273 151.871 160.219 155.348 156.676L167.938 143.845C171.415 140.302 171.361 134.611 167.817 131.134L161.092 124.535C160.186 123.664 159.938 122.312 160.475 121.176C161.758 118.536 162.853 115.807 163.752 113.012C164.147 111.812 165.268 111.001 166.531 111L175.986 110.905C180.942 110.846 184.92 106.792 184.885 101.835L184.714 83.8539C184.667 78.8912 180.605 74.9065 175.643 74.9527L161.737 75.0719C160.083 75.1138 158.776 76.4887 158.818 78.1429C158.859 79.7567 160.172 81.048 161.786 81.0628L175.693 80.9374C177.347 80.9219 178.701 82.2502 178.717 83.9044L178.888 101.886C178.903 103.54 177.575 104.893 175.92 104.909L166.464 105.008C162.623 105.033 159.231 107.518 158.048 111.172C157.234 113.698 156.244 116.164 155.084 118.552C153.418 122.005 154.147 126.138 156.895 128.812L163.621 135.411C164.802 136.57 164.82 138.467 163.661 139.648L151.071 152.479C149.912 153.66 148.015 153.678 146.834 152.519L140.108 145.92C137.383 143.224 133.238 142.574 129.818 144.306C127.452 145.511 125.004 146.548 122.491 147.409C118.866 148.668 116.45 152.103 116.492 155.94L116.571 165.395C116.586 167.049 115.258 168.403 113.604 168.419L95.6206 168.587C93.9679 168.602 92.6158 167.275 92.5989 165.622L92.5007 156.166C92.4728 152.325 89.9889 148.935 86.3363 147.75C83.8101 146.936 81.3441 145.945 78.9566 144.786C75.5031 143.119 71.3705 143.848 68.6964 146.597L62.0971 153.323C60.9383 154.504 59.0412 154.522 57.8602 153.363L45.0292 140.773C43.8482 139.614 43.8302 137.717 44.989 136.536L51.5883 129.81C54.2843 127.085 54.9344 122.94 53.2026 119.52C51.9972 117.154 50.9602 114.706 50.0993 112.193C48.843 108.566 45.4064 106.149 41.5679 106.194L32.1112 106.275C30.457 106.29 29.1033 104.962 29.0874 103.308L28.9211 85.3224C28.9067 83.6698 30.2334 82.3177 31.886 82.3007L45.7934 82.154C47.4481 82.1648 48.798 80.8319 48.8085 79.1774C48.8193 77.5227 47.4864 76.1728 45.8319 76.1622C45.7975 76.162 45.7625 76.1624 45.7281 76.1632L31.8229 76.3078C26.8618 76.3566 22.8786 80.4161 22.9238 85.3772L23.0921 103.356C23.14 108.319 27.201 112.304 32.1637 112.257L41.6077 112.176C42.8691 112.155 44.0032 112.942 44.4249 114.131C45.3758 116.91 46.5222 119.618 47.8555 122.236C48.4205 123.361 48.2014 124.723 47.3113 125.614L40.712 132.339C37.2353 135.882 37.2892 141.573 40.8325 145.05L53.6635 157.64C57.2068 161.117 62.8974 161.063 66.3741 157.519Z"/>
</mask>
<path d="M66.3741 157.519L72.9734 150.794C73.8443 149.888 75.1963 149.64 76.3319 150.177C78.969 151.463 81.6939 152.562 84.4858 153.464C85.6848 153.861 86.4951 154.981 86.4973 156.244L86.5933 165.698C86.6422 170.659 90.7016 174.643 95.6627 174.597L113.663 174.412C118.624 174.363 122.607 170.304 122.562 165.342L122.475 155.901C122.452 154.639 123.239 153.504 124.429 153.083C127.208 152.133 129.916 150.986 132.534 149.653C133.659 149.088 135.021 149.307 135.912 150.197L142.637 156.796C146.181 160.273 151.871 160.219 155.348 156.676L167.938 143.845C171.415 140.302 171.361 134.611 167.817 131.134L161.092 124.535C160.186 123.664 159.938 122.312 160.475 121.176C161.758 118.536 162.853 115.807 163.752 113.012C164.147 111.812 165.268 111.001 166.531 111L175.986 110.905C180.942 110.846 184.92 106.792 184.885 101.835L184.714 83.8539C184.667 78.8912 180.605 74.9065 175.643 74.9527L161.737 75.0719C160.083 75.1138 158.776 76.4887 158.818 78.1429C158.859 79.7567 160.172 81.048 161.786 81.0628L175.693 80.9374C177.347 80.9219 178.701 82.2502 178.717 83.9044L178.888 101.886C178.903 103.54 177.575 104.893 175.92 104.909L166.464 105.008C162.623 105.033 159.231 107.518 158.048 111.172C157.234 113.698 156.244 116.164 155.084 118.552C153.418 122.005 154.147 126.138 156.895 128.812L163.621 135.411C164.802 136.57 164.82 138.467 163.661 139.648L151.071 152.479C149.912 153.66 148.015 153.678 146.834 152.519L140.108 145.92C137.383 143.224 133.238 142.574 129.818 144.306C127.452 145.511 125.004 146.548 122.491 147.409C118.866 148.668 116.45 152.103 116.492 155.94L116.571 165.395C116.586 167.049 115.258 168.403 113.604 168.419L95.6206 168.587C93.9679 168.602 92.6158 167.275 92.5989 165.622L92.5007 156.166C92.4728 152.325 89.9889 148.935 86.3363 147.75C83.8101 146.936 81.3441 145.945 78.9566 144.786C75.5031 143.119 71.3705 143.848 68.6964 146.597L62.0971 153.323C60.9383 154.504 59.0412 154.522 57.8602 153.363L45.0292 140.773C43.8482 139.614 43.8302 137.717 44.989 136.536L51.5883 129.81C54.2843 127.085 54.9344 122.94 53.2026 119.52C51.9972 117.154 50.9602 114.706 50.0993 112.193C48.843 108.566 45.4064 106.149 41.5679 106.194L32.1112 106.275C30.457 106.29 29.1033 104.962 29.0874 103.308L28.9211 85.3224C28.9067 83.6698 30.2334 82.3177 31.886 82.3007L45.7934 82.154C47.4481 82.1648 48.798 80.8319 48.8085 79.1774C48.8193 77.5227 47.4864 76.1728 45.8319 76.1622C45.7975 76.162 45.7625 76.1624 45.7281 76.1632L31.8229 76.3078C26.8618 76.3566 22.8786 80.4161 22.9238 85.3772L23.0921 103.356C23.14 108.319 27.201 112.304 32.1637 112.257L41.6077 112.176C42.8691 112.155 44.0032 112.942 44.4249 114.131C45.3758 116.91 46.5222 119.618 47.8555 122.236C48.4205 123.361 48.2014 124.723 47.3113 125.614L40.712 132.339C37.2353 135.882 37.2892 141.573 40.8325 145.05L53.6635 157.64C57.2068 161.117 62.8974 161.063 66.3741 157.519Z" fill="white"/>
<path d="M72.9734 150.794L87.2489 164.801L87.3199 164.729L87.3902 164.656L72.9734 150.794ZM76.3319 150.177L85.0975 132.2L84.9908 132.148L84.8836 132.098L76.3319 150.177ZM84.4858 153.464L90.7689 134.477L90.7034 134.455L90.6378 134.434L84.4858 153.464ZM86.4973 156.244L66.4973 156.278L66.4975 156.363L66.4983 156.447L86.4973 156.244ZM86.5933 165.698L106.592 165.501L106.592 165.495L86.5933 165.698ZM95.6627 174.597L95.8448 194.597L95.8568 194.596L95.8688 194.596L95.6627 174.597ZM113.663 174.412L113.466 154.413L113.457 154.413L113.663 174.412ZM122.562 165.342L142.561 165.16L142.561 165.157L122.562 165.342ZM122.475 155.901L142.474 155.716L142.473 155.631L142.471 155.547L122.475 155.901ZM124.429 153.083L117.955 134.16L117.856 134.194L117.757 134.229L124.429 153.083ZM132.534 149.653L123.563 131.778L123.509 131.805L123.456 131.832L132.534 149.653ZM135.912 150.197L121.778 164.347L121.841 164.41L121.904 164.473L135.912 150.197ZM161.092 124.535L175.099 110.259L175.027 110.188L174.954 110.118L161.092 124.535ZM160.475 121.176L142.485 112.438L142.44 112.53L142.397 112.623L160.475 121.176ZM163.752 113.012L144.756 106.754L144.734 106.822L144.712 106.889L163.752 113.012ZM166.531 111L166.536 131L166.635 131L166.734 130.999L166.531 111ZM175.986 110.905L176.189 130.903L176.206 130.903L176.223 130.903L175.986 110.905ZM184.885 101.835L204.884 101.694L204.884 101.67L204.884 101.645L184.885 101.835ZM184.714 83.8539L204.713 83.6643L204.713 83.6611L184.714 83.8539ZM175.643 74.9527L175.814 94.952L175.822 94.9519L175.829 94.9519L175.643 74.9527ZM161.737 75.0719L161.566 55.0726L161.398 55.074L161.231 55.0783L161.737 75.0719ZM158.818 78.1429L178.812 77.6351L178.812 77.6333L158.818 78.1429ZM161.786 81.0628L161.601 101.062L161.784 101.064L161.966 101.062L161.786 81.0628ZM175.693 80.9374L175.874 100.937L175.88 100.936L175.693 80.9374ZM178.717 83.9044L198.716 83.7148L198.716 83.7116L178.717 83.9044ZM178.888 101.886L198.887 101.699L198.887 101.696L178.888 101.886ZM175.92 104.909L175.728 84.9104L175.72 84.9104L175.713 84.9105L175.92 104.909ZM166.464 105.008L166.594 125.007L166.633 125.007L166.671 125.006L166.464 105.008ZM158.048 111.172L139.02 105.014L139.016 105.026L139.012 105.038L158.048 111.172ZM155.084 118.552L137.093 109.814L137.082 109.838L137.071 109.861L155.084 118.552ZM156.895 128.812L170.903 114.536L170.873 114.508L170.844 114.479L156.895 128.812ZM140.108 145.92L126.044 160.139L126.072 160.168L126.101 160.196L140.108 145.92ZM129.818 144.306L120.783 126.463L120.762 126.473L120.741 126.484L129.818 144.306ZM122.491 147.409L116.008 128.489L115.97 128.502L115.932 128.515L122.491 147.409ZM116.492 155.94L136.491 155.773L136.491 155.748L136.491 155.723L116.492 155.94ZM116.571 165.395L96.5717 165.562L96.5717 165.572L96.5718 165.581L116.571 165.395ZM113.604 168.419L113.791 188.418L113.797 188.418L113.604 168.419ZM95.6206 168.587L95.7941 188.586L95.8078 188.586L95.6206 168.587ZM92.5989 165.622L112.598 165.417L112.598 165.415L92.5989 165.622ZM92.5007 156.166L72.5013 156.311L72.5015 156.342L72.5018 156.373L92.5007 156.166ZM86.3363 147.75L92.5089 128.726L92.4894 128.72L92.4699 128.713L86.3363 147.75ZM78.9566 144.786L87.694 126.795L87.6727 126.785L87.6514 126.775L78.9566 144.786ZM68.6964 146.597L82.9719 160.604L83.002 160.574L83.032 160.543L68.6964 146.597ZM51.5883 129.81L37.3689 115.746L37.3408 115.774L37.3127 115.803L51.5883 129.81ZM53.2026 119.52L71.0456 110.485L71.0343 110.463L71.023 110.44L53.2026 119.52ZM50.0993 112.193L69.0191 105.709L69.0085 105.679L68.9979 105.648L50.0993 112.193ZM41.5679 106.194L41.7396 126.193L41.7693 126.193L41.7989 126.192L41.5679 106.194ZM32.1112 106.275L31.9395 86.2757L31.9322 86.2757L31.9248 86.2758L32.1112 106.275ZM29.0874 103.308L9.08821 103.493L9.08828 103.501L29.0874 103.308ZM28.9211 85.3224L8.92183 85.496L8.92193 85.5073L28.9211 85.3224ZM31.886 82.3007L32.0917 102.3L32.097 102.3L31.886 82.3007ZM45.7934 82.154L45.9238 62.1545L45.7531 62.1533L45.5824 62.1551L45.7934 82.154ZM48.8085 79.1774L28.8089 79.0469L28.8089 79.0501L48.8085 79.1774ZM45.8319 76.1622L45.9592 56.1626L45.95 56.1626L45.8319 76.1622ZM45.7281 76.1632L45.936 96.1621L46.0807 96.1606L46.2253 96.157L45.7281 76.1632ZM31.8229 76.3078L32.0199 96.3068L32.0307 96.3067L31.8229 76.3078ZM22.9238 85.3772L2.92462 85.5593L2.92468 85.5644L22.9238 85.3772ZM23.0921 103.356L3.093 103.543L3.09305 103.549L23.0921 103.356ZM32.1637 112.257L31.992 92.2582L31.9846 92.2582L31.9773 92.2583L32.1637 112.257ZM41.6077 112.176L41.7794 132.176L41.8639 132.175L41.9484 132.173L41.6077 112.176ZM44.4249 114.131L63.3481 107.657L63.3116 107.55L63.2738 107.443L44.4249 114.131ZM47.8555 122.236L65.7307 113.265L65.7037 113.211L65.6764 113.157L47.8555 122.236ZM47.3113 125.614L33.1612 111.479L33.0982 111.543L33.0357 111.606L47.3113 125.614ZM80.6497 171.527L87.2489 164.801L58.6978 136.786L52.0985 143.512L80.6497 171.527ZM87.3902 164.656C82.3039 169.946 74.4095 171.392 67.7802 168.257L84.8836 132.098C75.983 127.888 65.3846 129.83 58.5566 136.932L87.3902 164.656ZM67.5663 168.154C71.048 169.852 74.6462 171.302 78.3338 172.495L90.6378 134.434C88.7417 133.821 86.8901 133.074 85.0975 132.2L67.5663 168.154ZM78.2028 172.452C71.2237 170.142 66.51 163.625 66.4973 156.278L106.497 156.209C106.48 146.336 100.146 137.58 90.7689 134.477L78.2028 172.452ZM66.4983 156.447L66.5943 165.901L106.592 165.495L106.496 156.041L66.4983 156.447ZM66.5943 165.895C66.7519 181.896 79.8443 194.742 95.8448 194.597L95.4806 154.598C101.559 154.543 106.532 159.423 106.592 165.501L66.5943 165.895ZM95.8688 194.596L113.869 194.411L113.457 154.413L95.4566 154.598L95.8688 194.596ZM113.86 194.411C129.86 194.253 142.707 181.161 142.561 165.16L102.563 165.525C102.507 159.446 107.388 154.473 113.466 154.413L113.86 194.411ZM142.561 165.157L142.474 155.716L102.475 156.086L102.563 165.528L142.561 165.157ZM142.471 155.547C142.601 162.886 138.024 169.488 131.101 171.938L117.757 134.229C108.455 137.521 102.303 146.392 102.478 156.254L142.471 155.547ZM130.903 172.007C134.575 170.75 138.154 169.235 141.612 167.474L123.456 131.832C121.679 132.737 119.841 133.515 117.955 134.16L130.903 172.007ZM141.505 167.528C134.935 170.825 126.986 169.549 121.778 164.347L150.046 136.047C143.056 129.065 132.384 127.351 123.563 131.778L141.505 167.528ZM121.904 164.473L128.63 171.072L156.645 142.521L149.919 135.921L121.904 164.473ZM128.63 171.072C140.057 182.285 158.411 182.111 169.623 170.683L141.072 142.668C145.332 138.327 152.304 138.261 156.645 142.521L128.63 171.072ZM169.623 170.683L182.214 157.852L153.662 129.837L141.072 142.668L169.623 170.683ZM182.214 157.852C193.426 146.425 193.252 128.071 181.825 116.859L153.81 145.41C149.469 141.15 149.403 134.178 153.662 129.837L182.214 157.852ZM181.825 116.859L175.099 110.259L147.084 138.811L153.81 145.41L181.825 116.859ZM174.954 110.118C180.242 115.202 181.692 123.097 178.554 129.73L142.397 112.623C138.184 121.527 140.131 132.126 147.23 138.952L174.954 110.118ZM178.465 129.914C180.159 126.427 181.605 122.825 182.791 119.135L144.712 106.889C144.101 108.79 143.357 110.644 142.485 112.438L178.465 129.914ZM182.747 119.27C180.442 126.268 173.906 130.999 166.536 131L166.526 91.0005C156.629 91.0031 147.852 97.3558 144.756 106.754L182.747 119.27ZM166.734 130.999L176.189 130.903L175.783 90.9055L166.328 91.0015L166.734 130.999ZM176.223 130.903C192.188 130.713 204.997 117.658 204.884 101.694L164.885 101.977C164.843 95.9257 169.697 90.9778 175.748 90.9059L176.223 130.903ZM204.884 101.645L204.713 83.6643L164.715 84.0435L164.886 102.025L204.884 101.645ZM204.713 83.6611C204.559 67.6558 191.462 54.8044 175.456 54.9536L175.829 94.9519C169.749 95.0085 164.774 90.1267 164.715 84.0467L204.713 83.6611ZM175.471 54.9535L161.566 55.0726L161.909 95.0711L175.814 94.952L175.471 54.9535ZM161.231 55.0783C148.535 55.3999 138.501 65.9531 138.825 78.6525L178.812 77.6333C179.051 87.0243 171.631 94.8276 162.244 95.0654L161.231 55.0783ZM138.825 78.6507C139.139 91.0358 149.21 100.948 161.601 101.062L161.97 61.0637C171.133 61.1482 178.579 68.4775 178.812 77.6351L138.825 78.6507ZM161.966 101.062L175.874 100.937L175.513 60.9382L161.605 61.0637L161.966 101.062ZM175.88 100.936C166.491 101.024 158.808 93.4857 158.718 84.0972L198.716 83.7116C198.594 71.0147 188.204 60.8199 175.507 60.9382L175.88 100.936ZM158.718 84.094L158.888 102.075L198.887 101.696L198.716 83.7148L158.718 84.094ZM158.888 102.072C158.801 92.6835 166.339 85.0009 175.728 84.9104L176.113 124.909C188.81 124.786 199.005 114.396 198.887 101.699L158.888 102.072ZM175.713 84.9105L166.256 85.0086L166.671 125.006L176.128 124.908L175.713 84.9105ZM166.334 85.008C153.866 85.0892 142.858 93.1548 139.02 105.014L177.076 117.331C175.604 121.88 171.38 124.976 166.594 125.007L166.334 85.008ZM139.012 105.038C138.485 106.673 137.844 108.269 137.093 109.814L173.074 127.289C174.643 124.059 175.983 120.723 177.084 117.306L139.012 105.038ZM137.071 109.861C131.666 121.064 134.032 134.469 142.946 143.145L170.844 114.479C174.263 117.806 175.17 122.946 173.097 127.242L137.071 109.861ZM142.888 143.088L149.613 149.687L177.628 121.136L170.903 114.536L142.888 143.088ZM149.613 149.687C142.91 143.11 142.808 132.344 149.385 125.641L177.937 153.656C186.831 144.59 186.693 130.031 177.628 121.136L149.613 149.687ZM149.385 125.641L136.795 138.472L165.346 166.487L177.937 153.656L149.385 125.641ZM136.795 138.472C143.373 131.769 154.138 131.666 160.841 138.244L132.827 166.795C141.892 175.69 156.452 175.552 165.346 166.487L136.795 138.472ZM160.841 138.244L154.116 131.644L126.101 160.196L132.827 166.795L160.841 138.244ZM154.173 131.701C145.329 122.953 131.881 120.844 120.783 126.463L138.853 162.149C134.596 164.304 129.437 163.495 126.044 160.139L154.173 131.701ZM120.741 126.484C119.21 127.264 117.629 127.934 116.008 128.489L128.975 166.329C132.378 165.163 135.693 163.758 138.895 162.127L120.741 126.484ZM115.932 128.515C104.185 132.594 96.358 143.723 96.4931 156.158L136.491 155.723C136.542 160.483 133.547 164.742 129.051 166.303L115.932 128.515ZM96.4926 156.108L96.5717 165.562L136.57 165.228L136.491 155.773L96.4926 156.108ZM96.5718 165.581C96.4843 156.193 104.023 148.51 113.411 148.42L113.797 188.418C126.494 188.296 136.688 177.906 136.57 165.209L96.5718 165.581ZM113.417 148.42L95.4333 148.588L95.8078 188.586L113.791 188.418L113.417 148.42ZM95.447 148.588C104.827 148.507 112.501 156.037 112.598 165.417L72.5999 165.828C72.7303 178.513 83.1087 188.697 95.7942 188.586L95.447 148.588ZM112.598 165.415L112.5 155.958L72.5018 156.373L72.5999 165.83L112.598 165.415ZM112.5 156.02C112.41 143.565 104.353 132.569 92.5089 128.726L80.1637 166.773C75.6244 165.3 72.536 161.086 72.5013 156.311L112.5 156.02ZM92.4699 128.713C90.835 128.187 89.2391 127.546 87.694 126.795L70.2192 162.776C73.4491 164.345 76.7851 165.685 80.2027 166.786L92.4699 128.713ZM87.6514 126.775C76.4455 121.365 63.0365 123.733 54.3607 132.651L83.032 160.543C79.7044 163.964 74.5606 164.872 70.2618 162.797L87.6514 126.775ZM54.4208 132.59L47.8215 139.315L76.3726 167.33L82.9719 160.604L54.4208 132.59ZM47.8215 139.315C54.3988 132.612 65.1645 132.51 71.8677 139.087L43.8528 167.638C52.918 176.533 67.4777 176.395 76.3726 167.33L47.8215 139.315ZM71.8677 139.087L59.0366 126.497L31.0217 155.048L43.8528 167.638L71.8677 139.087ZM59.0366 126.497C65.7398 133.074 65.8419 143.84 59.2646 150.543L30.7134 122.528C21.8185 131.594 21.9566 146.153 31.0217 155.048L59.0366 126.497ZM59.2646 150.543L65.8639 143.818L37.3127 115.803L30.7134 122.528L59.2646 150.543ZM65.8076 143.875C74.5556 135.03 76.6647 121.582 71.0456 110.485L35.3595 128.554C33.2041 124.298 34.013 119.139 37.3689 115.746L65.8076 143.875ZM71.023 110.44C70.2449 108.913 69.5753 107.332 69.0191 105.709L31.1794 118.677C32.3451 122.079 33.7494 125.394 35.3822 128.599L71.023 110.44ZM68.9979 105.648C64.9242 93.8859 53.7817 86.0514 41.3369 86.1951L41.7989 126.192C37.0312 126.248 32.7617 123.246 31.2006 118.739L68.9979 105.648ZM41.3962 86.1945L31.9395 86.2757L32.2829 126.274L41.7396 126.193L41.3962 86.1945ZM31.9248 86.2758C41.3133 86.1883 48.9959 93.7266 49.0864 103.115L9.08828 103.501C9.21068 116.198 19.6007 126.392 32.2976 126.274L31.9248 86.2758ZM49.0865 103.123L48.9202 85.1375L8.92193 85.5073L9.08821 103.493L49.0865 103.123ZM48.9203 85.1489C49.0017 94.529 41.4716 102.203 32.0917 102.3L31.6804 62.3018C18.9952 62.4322 8.81174 72.8106 8.92183 85.496L48.9203 85.1489ZM32.097 102.3L46.0043 102.153L45.5824 62.1551L31.6751 62.3018L32.097 102.3ZM45.6629 102.154C58.3662 102.236 68.7273 92.004 68.8081 79.3047L28.8089 79.0501C28.8687 69.6598 36.53 62.0932 45.9238 62.1545L45.6629 102.154ZM68.8081 79.3079C68.891 66.6047 58.6586 56.2435 45.9592 56.1626L45.7046 96.1618C36.3141 96.102 28.7477 88.4407 28.8089 79.0469L68.8081 79.3079ZM45.95 56.1626C45.7104 56.1612 45.4703 56.1634 45.2309 56.1694L46.2253 96.157C46.0547 96.1613 45.8845 96.1629 45.7138 96.1619L45.95 56.1626ZM45.5202 56.1643L31.615 56.3088L32.0307 96.3067L45.936 96.1621L45.5202 56.1643ZM31.6258 56.3087C15.6254 56.4664 2.77891 69.5588 2.92462 85.5593L42.923 85.195C42.9783 91.2733 38.0982 96.2469 32.0199 96.3068L31.6258 56.3087ZM2.92468 85.5644L3.093 103.543L43.0912 103.169L42.9229 85.1899L2.92468 85.5644ZM3.09305 103.549C3.24735 119.554 16.3447 132.406 32.3501 132.257L31.9773 92.2583C38.0573 92.2016 43.0326 97.0834 43.0912 103.163L3.09305 103.549ZM32.3353 132.257L41.7794 132.176L41.436 92.1771L31.992 92.2582L32.3353 132.257ZM41.9484 132.173C34.6154 132.298 28.0264 127.725 25.576 120.818L63.2738 107.443C59.9799 98.159 51.1229 92.0113 41.267 92.1793L41.9484 132.173ZM25.5017 120.604C26.7582 124.277 28.273 127.856 30.0346 131.314L65.6764 113.157C64.7714 111.381 63.9934 109.543 63.3481 107.657L25.5017 120.604ZM29.9803 131.207C26.6832 124.637 27.9591 116.687 33.1612 111.479L61.4613 139.748C68.4437 132.758 70.1578 122.086 65.7307 113.265L29.9803 131.207ZM33.0357 111.606L26.4364 118.332L54.9876 146.347L61.5868 139.621L33.0357 111.606ZM26.4364 118.332C15.2237 129.759 15.3976 148.113 26.8251 159.325L54.8399 130.774C59.1809 135.034 59.247 142.006 54.9876 146.347L26.4364 118.332ZM26.8251 159.325L39.6561 171.915L67.671 143.364L54.8399 130.774L26.8251 159.325ZM39.6561 171.915C51.0835 183.128 69.4369 182.954 80.6497 171.527L52.0985 143.512C56.3579 139.171 63.33 139.105 67.671 143.364L39.6561 171.915Z" fill="white" mask="url(#path-1-inside-1)"/>
<mask id="path-3-inside-2" fill="white">
<path d="M104.272 132.552C125.772 132.325 143.029 114.737 142.848 93.2374C142.804 91.5834 141.427 90.2784 139.773 90.323C138.159 90.3664 136.87 91.6802 136.857 93.2942C137.152 111.493 122.637 126.485 104.438 126.78C86.2394 127.074 71.2476 112.56 70.953 94.3607C70.9506 94.2135 70.9492 94.0663 70.9488 93.919C70.9617 92.2643 69.6311 90.9125 67.9764 90.8996C66.3216 90.8867 64.9699 92.2172 64.9569 93.872C64.9567 93.9064 64.9571 93.9414 64.9579 93.9758C65.1842 115.475 82.7724 132.733 104.272 132.552Z"/>
</mask>
<path d="M104.272 132.552C125.772 132.325 143.029 114.737 142.848 93.2374C142.804 91.5834 141.427 90.2784 139.773 90.323C138.159 90.3664 136.87 91.6802 136.857 93.2942C137.152 111.493 122.637 126.485 104.438 126.78C86.2394 127.074 71.2476 112.56 70.953 94.3607C70.9506 94.2135 70.9492 94.0663 70.9488 93.919C70.9617 92.2643 69.6311 90.9125 67.9764 90.8996C66.3216 90.8867 64.9699 92.2172 64.9569 93.872C64.9567 93.9064 64.9571 93.9414 64.9579 93.9758C65.1842 115.475 82.7724 132.733 104.272 132.552Z" fill="white"/>
<path d="M104.272 132.552L104.441 152.551L104.462 152.551L104.483 152.551L104.272 132.552ZM142.848 93.2374L162.847 93.0687L162.846 92.8838L162.841 92.6989L142.848 93.2374ZM139.773 90.323L140.31 110.316L140.311 110.316L139.773 90.323ZM136.857 93.2942L116.858 93.1359L116.856 93.3769L116.86 93.6179L136.857 93.2942ZM70.953 94.3607L90.9504 94.037L90.9502 94.0272L70.953 94.3607ZM70.9488 93.919L50.9494 93.7629L50.9487 93.8638L50.9489 93.9647L70.9488 93.919ZM64.9569 93.872L44.9576 93.7159L44.9574 93.7349L44.9573 93.7539L64.9569 93.872ZM64.9579 93.9758L84.9568 93.7653L84.9553 93.6219L84.9517 93.4786L64.9579 93.9758ZM104.483 152.551C137.011 152.208 163.122 125.598 162.847 93.0687L122.849 93.4061C122.937 103.877 114.532 112.443 104.062 112.553L104.483 152.551ZM162.841 92.6989C162.499 80.0051 151.932 69.9883 139.234 70.3302L140.311 110.316C130.922 110.569 123.108 103.162 122.855 93.7759L162.841 92.6989ZM139.235 70.3302C126.851 70.6631 116.956 80.7473 116.858 93.1359L156.857 93.4524C156.784 102.613 149.468 110.07 140.31 110.316L139.235 70.3302ZM116.86 93.6179C116.976 100.772 111.27 106.666 104.115 106.782L104.762 146.777C134.005 146.304 157.328 122.214 156.855 92.9705L116.86 93.6179ZM104.115 106.782C96.9602 106.898 91.0662 101.192 90.9504 94.037L50.9556 94.6844C51.429 123.927 75.5186 147.25 104.762 146.777L104.115 106.782ZM90.9502 94.0272C90.9494 93.9767 90.9489 93.9253 90.9488 93.8733L50.9489 93.9647C50.9494 94.2072 50.9517 94.4503 50.9558 94.6942L90.9502 94.0272ZM90.9482 94.0751C91.0473 81.377 80.8346 70.9993 68.1325 70.9002L67.8203 110.899C58.4276 110.826 50.8762 103.151 50.9494 93.7629L90.9482 94.0751ZM68.1325 70.9002C55.4344 70.8011 45.0567 81.0137 44.9576 93.7159L84.9563 94.0281C84.883 103.421 77.2088 110.972 67.8203 110.899L68.1325 70.9002ZM44.9573 93.7539C44.9559 93.9904 44.9581 94.2305 44.9641 94.473L84.9517 93.4786C84.9561 93.6523 84.9576 93.8225 84.9566 93.9901L44.9573 93.7539ZM44.959 94.1863C45.3015 126.714 71.9121 152.825 104.441 152.551L104.104 112.552C93.6327 112.641 85.067 104.236 84.9568 93.7653L44.959 94.1863Z" fill="white" mask="url(#path-3-inside-2)"/>
<ellipse cx="94.6669" cy="83.3556" rx="4.66667" ry="4.35556" fill="#FFCCD6"/>
<ellipse cx="94.6669" cy="100.778" rx="4.66667" ry="4.35556" fill="#21B8EB"/>
<ellipse cx="113.334" cy="100.778" rx="4.66667" ry="4.35556" fill="#F3A2BC"/>
<ellipse cx="113.334" cy="83.3556" rx="4.66667" ry="4.35556" fill="#FFEC51"/>
</svg>
