<svg width="345" height="37" viewBox="0 0 345 37" fill="none" xmlns="http://www.w3.org/2000/svg">
<path d="M336.605 36.9897L301.463 36.9897L309.474 21.5775L344.617 21.5775L336.605 36.9897Z" fill="white"/>
<path d="M293.451 36.9897L258.308 36.9897L266.32 21.5775L301.463 21.5775L293.451 36.9897Z" fill="white"/>
<path d="M250.297 36.9897L215.154 36.9897L223.166 21.5775L258.308 21.5775L250.297 36.9897Z" fill="white"/>
<path d="M207.142 36.9897L171.999 36.9897L180.011 21.5775L215.154 21.5775L207.142 36.9897Z" fill="white"/>
<path d="M336.605 0L301.463 0L309.475 14.6417L344.617 14.6417L336.605 0Z" fill="white"/>
<path d="M293.451 0L258.308 0L266.32 14.6417L301.463 14.6417L293.451 0Z" fill="white"/>
<path d="M250.297 0L215.154 0L223.166 14.6417L258.308 14.6417L250.297 0Z" fill="white"/>
<path d="M207.142 0L171.999 0L180.011 14.6417L215.154 14.6417L207.142 0Z" fill="white"/>
<path d="M164.605 36.9897L129.463 36.9897L137.475 21.5775L172.617 21.5775L164.605 36.9897Z" fill="white"/>
<path d="M121.451 36.9897L86.3083 36.9897L94.3201 21.5775L129.463 21.5775L121.451 36.9897Z" fill="white"/>
<path d="M78.2966 36.9897L43.1539 36.9897L51.1657 21.5775L86.3083 21.5775L78.2966 36.9897Z" fill="white"/>
<path d="M35.1421 36.9897L-0.000492096 36.9897L8.0113 21.5775L43.1539 21.5775L35.1421 36.9897Z" fill="white"/>
<path d="M164.605 0L129.463 0L137.475 14.6417L172.617 14.6417L164.605 0Z" fill="white"/>
<path d="M121.451 0L86.3083 0L94.3201 14.6417L129.463 14.6417L121.451 0Z" fill="white"/>
<path d="M78.2966 0L43.1539 0L51.1657 14.6417L86.3083 14.6417L78.2966 0Z" fill="white"/>
<path d="M35.1421 0L-0.000492096 0L8.0113 14.6417L43.1539 14.6417L35.1421 0Z" fill="white"/>
</svg>
