<svg width="216" height="202" viewBox="0 0 216 202" fill="none" xmlns="http://www.w3.org/2000/svg">
<path d="M4 198C13.0791 191.84 19.7428 188.205 21.6732 178.808C23.3532 170.63 22.3892 162.052 21.0614 153.896C19.2121 142.536 15.4283 131.604 10.6614 120.712C8.85845 116.592 -1.38222 93.1235 9.57386 91.3095C18.0762 89.9016 27.749 106.494 31.0536 110.171C45.3724 126.103 57.8473 142.468 78.9072 154.794C84.8551 158.276 93.9837 163.836 102.562 162.925C109.624 162.175 105.687 153.67 104.329 150.918C97.5256 137.129 83.7949 124.501 73.4693 111.872C64.942 101.444 55.5727 91.3702 47.9791 80.5789C44.1765 75.1751 37.2187 66.7705 39.8222 60.2524C42.2723 54.1185 57.7108 55.4048 63.9529 56.7071C78.3644 59.7137 87.0165 68.0865 93.3856 77.0336C110.164 100.603 121.804 129.388 153.271 145.718C158.919 148.65 164.248 150.543 171.216 151.485C179.903 152.66 172.141 138.164 171.42 136.311C161.817 111.641 139.919 90.1571 129.752 65.4522C125.62 55.4145 121.214 44.8014 121.459 34.2534C121.521 31.5897 122.002 28.561 124.654 26.4537C131.134 21.3036 139.17 28.8627 142.803 32.0789C152.155 40.3589 158.986 49.8646 167.137 58.6925C171.686 63.619 170.867 59.3441 170.808 55.6199C170.751 52.0563 165.999 26.0496 173.391 24.7992C177.533 24.0985 181.583 26.9778 186.306 25.5556C197.936 22.0535 205.328 10.9602 212 4" stroke="white" stroke-width="8" stroke-linecap="round" stroke-linejoin="round"/>
</svg>
