<svg width="351" height="419" viewBox="0 0 351 419" fill="none" xmlns="http://www.w3.org/2000/svg">
<path d="M351.784 57.875C254.685 111.916 169.328 186.584 88.4234 262.115C63.2312 285.634 39.2191 310.381 14.0486 333.916C-0.0612895 347.108 19.2208 324.861 21.345 322.379C42.094 298.134 69.1371 278.857 94.7527 260.238C132.428 232.854 171.998 208.013 212.847 185.636C250.38 165.075 290.016 148.081 330.577 134.496C345.006 129.663 353.998 127.223 367.91 123.419C372.43 122.183 384.852 116.637 381.531 119.943C378.96 122.503 375.272 123.615 372.187 125.525C346.269 141.567 320.467 157.858 294.919 174.481C243.396 208.004 191.971 243.566 147.801 286.638C145.119 289.254 128.362 305.336 127.901 313.196C127.184 325.447 153.087 316.604 164.711 312.672C174.403 309.394 215.18 293.44 223.256 290.491C232.332 287.177 241.385 283.756 250.656 281.033C256.215 279.401 270.303 276.063 268.033 281.393C264.285 290.2 178.183 347.087 188.272 356.563C197.156 364.908 214.484 362.509 224.584 370.855C233.165 377.945 229.944 385.688 227.707 394.655" stroke="#FFEC51" stroke-width="10" stroke-linecap="round" stroke-linejoin="round"/>
</svg>
