<svg width="402" height="250" viewBox="0 0 402 250" fill="none" xmlns="http://www.w3.org/2000/svg">
<path d="M-65.1641 136.907C-92.177 93.606 -126.136 55.2268 -155.15 13.2291C-158.862 7.85675 -163.539 4.16041 -155.148 6.42868C-108.193 19.1218 -63.6834 42.617 -20.325 64.006C80.664 113.824 179.46 167.389 284.246 209.088C319.982 223.309 356.364 236.359 394.1 244.077C408.606 247.044 364.631 240.692 350.168 237.524C321.602 231.266 299.365 220.471 274.26 204.294C258.582 194.191 243.723 182.615 229.281 170.86C196.288 144.005 160.478 115.66 134.927 81.2447C127.164 70.7892 129.856 67.8146 140.085 73.219C153.617 80.3683 165.654 90.2179 178.767 98.0834C189.792 104.697 220.575 123.781 233.476 116.566C239.589 113.148 219.468 87.1097 217.955 84.53C216.064 81.3067 200.025 50.0433 213.829 51.3268C221.875 52.0749 230.053 55.5794 238.123 56.9485" stroke="#FFEC51" stroke-width="10" stroke-linecap="round" stroke-linejoin="round"/>
</svg>
